<svg xmlns="http://www.w3.org/2000/svg" version="1.1" xmlns:xlink="http://www.w3.org/1999/xlink" xmlns:svgjs="http://svgjs.dev/svgjs" width="2000" height="156" viewBox="0 0 2000 156"><g transform="matrix(1,0,0,1,-1.2121212121212466,-0.5568634515056772)"><svg viewBox="0 0 396 31" data-background-color="#000000" preserveAspectRatio="xMidYMid meet" height="156" width="2000" xmlns="http://www.w3.org/2000/svg" xmlns:xlink="http://www.w3.org/1999/xlink"><g id="tight-bounds" transform="matrix(1,0,0,1,0.2400000000000091,0.11065876279920417)"><svg viewBox="0 0 395.52 30.778682474401577" height="30.778682474401577" width="395.52"><g><svg viewBox="0 0 458.74032822327183 35.69837909735752" height="30.778682474401577" width="395.52"><g transform="matrix(1,0,0,1,63.22032822327185,0.6285532257856019)"><svg viewBox="0 0 395.52 34.44127264578631" height="34.44127264578631" width="395.52"><g id="textblocktransform"><svg viewBox="0 0 395.52 34.44127264578631" height="34.44127264578631" width="395.52" id="textblock"><g><svg viewBox="0 0 395.52 34.44127264578631" height="34.44127264578631" width="395.52"><g transform="matrix(1,0,0,1,0,0)"><svg width="395.52" viewBox="-0.3 -36.95 429.4677178147268 37.400000000000006" height="34.44127264578631" data-palette-color="url(#b998a308-0b94-4a1f-9908-20c050e735fb)"><g transform="matrix(1,0,0,1,0,0)"><g><svg width="14.431811876484558" viewBox="1.99 -36.86 66.08 37.37" height="8.162" data-palette-color="url(#b998a308-0b94-4a1f-9908-20c050e735fb)" id="scriptelement" x="414.73590593824224" y="-36.95"></svg></g></g><g class="wordmark-text-0" data-fill-palette-color="primary" id="text-0"></g></svg></g></svg></g></svg></g></svg></g><g><svg viewBox="0 0 55.0895703421452 35.69837909735752" height="35.69837909735752" width="55.0895703421452"><g><svg xmlns="http://www.w3.org/2000/svg" viewBox="10 27.59716307092343 100 64.80061266705354" x="0" y="0" height="35.69837909735752" width="55.0895703421452" class="icon-icon-0" data-fill-palette-color="accent" id="icon-0"></svg></g></svg></g></svg></g><defs></defs><mask id="68364fb0-5e00-4db8-acb4-715a02001bd6"><g id="SvgjsG1444"><svg viewBox="0 0 395.52 30.778682474401577" height="30.778682474401577" width="395.52"><g><svg viewBox="0 0 458.74032822327183 35.69837909735752" height="30.778682474401577" width="395.52"><g transform="matrix(1,0,0,1,63.22032822327185,0.6285532257856019)"><svg viewBox="0 0 395.52 34.44127264578631" height="34.44127264578631" width="395.52"><g id="SvgjsG1443"><svg viewBox="0 0 395.52 34.44127264578631" height="34.44127264578631" width="395.52" id="SvgjsSvg1442"><g><svg viewBox="0 0 395.52 34.44127264578631" height="34.44127264578631" width="395.52"><g transform="matrix(1,0,0,1,0,0)"><svg width="395.52" viewBox="-0.3 -36.95 429.4677178147268 37.400000000000006" height="34.44127264578631" data-palette-color="url(#b998a308-0b94-4a1f-9908-20c050e735fb)"><g transform="matrix(1,0,0,1,0,0)"><g><svg width="14.431811876484558" viewBox="1.99 -36.86 66.08 37.37" height="8.162" data-palette-color="url(#b998a308-0b94-4a1f-9908-20c050e735fb)" id="SvgjsSvg1441" x="414.73590593824224" y="-36.95"><path d="M30.26-25.91L22.89-25.91Q22.67-28.05 21.06-29.24 19.44-30.43 16.67-30.43L16.67-30.43Q14.79-30.43 13.49-29.91 12.2-29.39 11.51-28.46 10.83-27.54 10.83-26.37L10.83-26.37Q10.8-25.39 11.25-24.66 11.7-23.93 12.5-23.41 13.3-22.89 14.35-22.51 15.39-22.12 16.58-21.86L16.58-21.86 19.85-21.08Q22.23-20.54 24.22-19.66 26.21-18.77 27.66-17.47 29.12-16.18 29.93-14.42 30.74-12.66 30.75-10.39L30.75-10.39Q30.74-7.05 29.06-4.61 27.38-2.17 24.23-0.83 21.08 0.51 16.64 0.51L16.64 0.51Q12.23 0.51 8.98-0.83 5.72-2.18 3.9-4.84 2.08-7.49 1.99-11.42L1.99-11.42 9.43-11.42Q9.55-9.59 10.48-8.37 11.42-7.16 12.99-6.54 14.56-5.93 16.55-5.93L16.55-5.93Q18.5-5.93 19.95-6.5 21.4-7.07 22.19-8.08 22.99-9.09 22.99-10.4L22.99-10.4Q22.99-11.63 22.27-12.46 21.56-13.3 20.18-13.88 18.8-14.47 16.81-14.95L16.81-14.95 12.86-15.94Q8.26-17.06 5.59-19.44 2.93-21.82 2.95-25.85L2.95-25.85Q2.93-29.15 4.71-31.62 6.5-34.09 9.62-35.48 12.75-36.86 16.73-36.86L16.73-36.86Q20.77-36.86 23.8-35.48 26.83-34.09 28.52-31.62 30.2-29.15 30.26-25.91L30.26-25.91ZM50.44-28.05L41.31 0 33.08 0 45.63-36.36 55.54-36.36 68.07 0 59.83 0 50.73-28.05 50.44-28.05ZM40.8-8.29L40.8-14.29 60.26-14.29 60.26-8.29 40.8-8.29Z" opacity="1" transform="matrix(1,0,0,1,0,0)" fill="white" class="undefined-123" id="SvgjsPath1440"></path></svg></g></g><g class="wordmark-text-0" data-fill-palette-color="primary" id="SvgjsG1439"><path d="M18.7-33.6Q21.5-33.6 23.88-32.93 26.25-32.25 28.7-30.8L28.7-30.8 29.85-31.75Q31.05-32.7 31.83-33.05 32.6-33.4 33.6-33.4L33.6-33.4Q34.8-33.4 35.5-32.88 36.2-32.35 36.2-31.35L36.2-31.35Q36.2-30.95 36.05-30.5L36.05-30.5 33.95-23.6Q33.6-22.4 33.08-21.9 32.55-21.4 31.5-21.4L31.5-21.4Q30.4-21.4 29.58-22.08 28.75-22.75 27-24.85L27-24.85Q25.25-26.85 23.83-27.68 22.4-28.5 20.9-28.5L20.9-28.5Q19.8-28.5 19.05-27.78 18.3-27.05 18.3-26L18.3-26Q18.3-24.8 19.5-23.78 20.7-22.75 23.25-21.2L23.25-21.2Q25.85-19.65 27.55-18.4 29.25-17.15 30.45-15.3 31.65-13.45 31.65-11.05L31.65-11.05Q31.65-9.5 31.15-7.95L31.15-7.95Q29.95-3.95 26.5-1.88 23.05 0.2 18.45 0.2L18.45 0.2Q15 0.2 12.65-0.6 10.3-1.4 7.85-3.3L7.85-3.3 6.05-1.8Q4.8-0.75 4-0.38 3.2 0 2.2 0L2.2 0Q1.05 0 0.38-0.55-0.3-1.1-0.3-2.05L-0.3-2.05Q-0.3-2.55-0.1-3.1L-0.1-3.1 2.35-10.55Q2.75-11.85 3.45-12.4 4.15-12.95 5.25-12.95L5.25-12.95Q6.4-12.95 7.33-12.15 8.25-11.35 9.75-9.25L9.75-9.25Q11.35-6.95 12.73-6.05 14.1-5.15 16-5.15L16-5.15Q17.35-5.15 18.07-5.58 18.8-6 19.1-6.95L19.1-6.95Q19.2-7.2 19.2-7.7L19.2-7.7Q19.2-8.9 18.05-9.9 16.9-10.9 14.5-12.3L14.5-12.3Q11.95-13.85 10.35-15.08 8.75-16.3 7.58-18.15 6.4-20 6.4-22.5L6.4-22.5Q6.4-24.25 6.95-25.95L6.95-25.95Q8-29.4 11.25-31.5 14.5-33.6 18.7-33.6L18.7-33.6ZM56.8-25.8Q57.75-25.8 58.27-25.4 58.8-25 58.8-24.3L58.8-24.3Q58.8-24.1 58.7-23.6L58.7-23.6Q58.05-21.4 55.7-21.4L55.7-21.4 52.8-21.4 49.05-9.05Q48.8-8.3 48.8-7.5L48.8-7.5Q48.8-6.6 49.3-6.25 49.8-5.9 50.7-5.9L50.7-5.9Q51.5-5.9 52.7-6.1L52.7-6.1Q53.3-6.25 53.75-6.25L53.75-6.25Q54.1-6.25 54.27-6.03 54.45-5.8 54.45-5.45L54.45-5.45Q54.5-4.45 52.97-3.03 51.45-1.6 48.85-0.58 46.25 0.45 43.1 0.45L43.1 0.45Q39.7 0.45 37.65-1.1 35.6-2.65 35.6-5.35L35.6-5.35Q35.6-6.6 36-7.75L36-7.75 39.2-17.65Q39.45-18.5 39.45-19L39.45-19Q39.45-20 38.97-20.7 38.5-21.4 37.65-22.15L37.65-22.15Q36.9-22.85 36.6-23.33 36.3-23.8 36.45-24.45L36.45-24.45Q36.65-25.1 37.3-25.45 37.95-25.8 39.35-25.8L39.35-25.8 42.15-25.8 45.3-28.95Q46.95-30.6 48.32-31.25 49.7-31.9 51.9-31.9L51.9-31.9Q55.05-31.9 55.05-29.5L55.05-29.5Q55.05-28.75 54.85-28.1L54.85-28.1 54.15-25.8 56.8-25.8ZM72.9-26.7Q79.25-26.7 82.1-24.68 84.95-22.65 84.95-19.5L84.95-19.5Q84.95-18.55 84.75-17.75L84.75-17.75Q84-14.45 80.57-13.03 77.15-11.6 72.5-11.6L72.5-11.6Q70.15-11.6 68.1-11.9L68.1-11.9Q68.05-9.3 69.5-8.25 70.95-7.2 73.55-7.2L73.55-7.2Q74.75-7.2 75.85-7.48 76.95-7.75 78.65-8.3L78.65-8.3Q80.05-8.8 80.55-8.8L80.55-8.8Q81.1-8.8 81.1-8.15L81.1-8.15Q81.15-6.4 79.8-4.48 78.45-2.55 75.8-1.2 73.15 0.15 69.4 0.15L69.4 0.15Q63.85 0.15 60.3-2.65 56.75-5.45 56.75-10.8L56.75-10.8Q56.75-12.3 57.15-14.3L57.15-14.3Q58.4-20.45 62.62-23.58 66.85-26.7 72.9-26.7L72.9-26.7ZM68.45-14.9Q68.65-14.85 69-14.85L69-14.85Q71.1-14.85 72.2-16.8 73.3-18.75 73.25-21.15L73.25-21.15Q73.2-22.55 72.45-22.55L72.45-22.55Q71.9-22.55 71.15-21.68 70.4-20.8 69.67-19.05 68.95-17.3 68.45-14.9L68.45-14.9ZM108.34-26.45Q110.99-26.45 112.74-24.55 114.49-22.65 114.49-19.35L114.49-19.35Q114.49-14.9 111.39-10.25 108.29-5.6 103.54-2.58 98.79 0.45 94.29 0.45L94.29 0.45Q89.99 0.45 87.32-1.3 84.64-3.05 84.64-6.3L84.64-6.3Q84.64-7.5 85.09-9L85.09-9 88.24-19.75Q88.34-20.15 88.34-20.35L88.34-20.35Q88.34-20.85 88.09-21.2 87.84-21.55 87.39-21.95L87.39-21.95Q86.64-22.6 86.64-23.1L86.64-23.1Q86.59-23.8 87.49-24.6 88.39-25.4 90.02-25.93 91.64-26.45 93.69-26.45L93.69-26.45Q97.04-26.45 98.92-24.83 100.79-23.2 100.79-20.6L100.79-20.6Q100.79-19.45 100.39-18.1L100.39-18.1 97.14-7.4Q96.99-6.95 96.99-6.65L96.99-6.65Q96.99-6 97.44-5.65 97.89-5.3 98.69-5.3L98.69-5.3Q99.79-5.3 101.27-6.28 102.74-7.25 104.19-9.08 105.64-10.9 106.54-13.4L106.54-13.4Q104.54-15.15 103.72-16.85 102.89-18.55 102.89-20.35L102.89-20.35Q102.89-22.9 104.29-24.68 105.69-26.45 108.34-26.45L108.34-26.45ZM130.84-26.7Q137.19-26.7 140.04-24.68 142.89-22.65 142.89-19.5L142.89-19.5Q142.89-18.55 142.69-17.75L142.69-17.75Q141.94-14.45 138.52-13.03 135.09-11.6 130.44-11.6L130.44-11.6Q128.09-11.6 126.04-11.9L126.04-11.9Q125.99-9.3 127.44-8.25 128.89-7.2 131.49-7.2L131.49-7.2Q132.69-7.2 133.79-7.48 134.89-7.75 136.59-8.3L136.59-8.3Q137.99-8.8 138.49-8.8L138.49-8.8Q139.04-8.8 139.04-8.15L139.04-8.15Q139.09-6.4 137.74-4.48 136.39-2.55 133.74-1.2 131.09 0.15 127.34 0.15L127.34 0.15Q121.79 0.15 118.24-2.65 114.69-5.45 114.69-10.8L114.69-10.8Q114.69-12.3 115.09-14.3L115.09-14.3Q116.34-20.45 120.57-23.58 124.79-26.7 130.84-26.7L130.84-26.7ZM126.39-14.9Q126.59-14.85 126.94-14.85L126.94-14.85Q129.04-14.85 130.14-16.8 131.24-18.75 131.19-21.15L131.19-21.15Q131.14-22.55 130.39-22.55L130.39-22.55Q129.84-22.55 129.09-21.68 128.34-20.8 127.62-19.05 126.89-17.3 126.39-14.9L126.39-14.9ZM177.34-22.9L172.44-5.9Q172.24-5.25 172.24-4.6L172.24-4.6Q172.24-4.05 172.39-3.68 172.54-3.3 172.71-3.08 172.89-2.85 172.94-2.75L172.94-2.75Q173.44-2.25 173.44-1.75L173.44-1.75Q173.44-1.65 173.34-1.25L173.34-1.25Q173.14-0.55 172.46-0.28 171.79 0 170.39 0L170.39 0 158.54 0Q157.49 0 156.91-0.35 156.34-0.7 156.34-1.3L156.34-1.3Q156.34-1.6 156.49-1.95L156.49-1.95Q156.64-2.35 156.91-2.58 157.19-2.8 157.69-3.1L157.69-3.1Q158.49-3.55 158.99-4.1 159.49-4.65 159.84-5.9L159.84-5.9 161.14-10.2 153.34-10.2 151.99-7.35Q151.14-5.5 151.14-4.45L151.14-4.45Q151.14-3.85 151.34-3.48 151.54-3.1 151.94-2.7L151.94-2.7Q152.29-2.3 152.41-2.02 152.54-1.75 152.44-1.3L152.44-1.3Q152.24-0.55 151.61-0.28 150.99 0 149.64 0L149.64 0 142.19 0Q141.04 0 140.44-0.43 139.84-0.85 139.84-1.55L139.84-1.55Q139.84-2.35 140.41-2.83 140.99-3.3 142.14-3.85L142.14-3.85Q143.64-4.6 144.54-5.33 145.44-6.05 146.09-7.35L146.09-7.35 154.99-25.8Q157.04-30.1 159.81-32.02 162.59-33.95 167.14-33.95L167.14-33.95Q172.24-33.95 175.04-31.88 177.84-29.8 177.84-26.1L177.84-26.1Q177.84-24.55 177.34-22.9L177.34-22.9ZM155.64-15.2L162.64-15.2 165.29-24Q165.49-24.6 165.49-25.25L165.49-25.25Q165.49-26.2 164.96-26.68 164.44-27.15 163.49-27.15L163.49-27.15Q162.29-27.15 161.44-26.45 160.59-25.75 159.74-23.95L159.74-23.95 155.64-15.2ZM202.29-26.65Q205.99-26.65 208.21-24 210.44-21.35 210.44-17L210.44-17Q210.44-14.75 209.89-12.6L209.89-12.6Q208.29-6.15 204.41-2.85 200.54 0.45 195.49 0.45L195.49 0.45Q192.64 0.45 190.56-0.53 188.49-1.5 187.24-3.3L187.24-3.3 185.44-1.75Q184.39-0.85 183.39-0.43 182.39 0 181.09 0L181.09 0 178.89 0Q177.64 0 176.96-0.53 176.29-1.05 176.29-2.05L176.29-2.05Q176.29-2.5 176.44-3.1L176.44-3.1 184.79-30.25Q184.94-30.7 184.94-31L184.94-31Q184.94-31.85 183.89-32.6L183.89-32.6Q183.39-33.05 183.19-33.33 182.99-33.6 183.14-34.05L183.14-34.05Q183.49-35.2 186.31-36.08 189.14-36.95 192.24-36.95L192.24-36.95Q195.14-36.95 196.51-35.83 197.89-34.7 197.89-32.8L197.89-32.8Q197.89-31.75 197.54-30.7L197.54-30.7 195.44-23.9Q198.34-26.65 202.29-26.65L202.29-26.65ZM196.64-12.9Q197.64-16.3 197.64-18.4L197.64-18.4Q197.64-20.7 196.29-20.7L196.29-20.7Q195.09-20.7 194.04-19.45L194.04-19.45 190.79-8.85 190.49-7.9 190.49-7.9Q190.24-7.15 190.24-6.35L190.24-6.35Q190.24-4.6 191.89-4.6L191.89-4.6Q193.09-4.6 194.19-6.35 195.29-8.1 196.64-12.9L196.64-12.9ZM238.58-7.2Q238.48-6.8 238.48-6.65L238.48-6.65Q238.48-6.3 238.68-6.1 238.88-5.9 239.18-5.9L239.18-5.9Q239.78-5.9 240.21-6.43 240.63-6.95 240.78-6.95L240.78-6.95Q241.03-6.95 241.18-6.6 241.33-6.25 241.33-5.8L241.33-5.8Q241.38-4.45 240.31-3.05 239.23-1.65 237.43-0.75 235.63 0.15 233.53 0.15L233.53 0.15Q231.03 0.15 229.18-0.8 227.33-1.75 226.63-3.3L226.63-3.3Q225.28-1.55 223.53-0.7 221.78 0.15 219.83 0.15L219.83 0.15Q217.53 0.15 215.56-1 213.58-2.15 212.41-4.28 211.23-6.4 211.23-9.1L211.23-9.1Q211.23-13.65 212.96-17.68 214.68-21.7 217.78-24.18 220.88-26.65 224.83-26.65L224.83-26.65Q226.98-26.65 228.51-26.15 230.03-25.65 231.28-24.65L231.28-24.65 232.98-30.25Q233.13-30.7 233.13-31L233.13-31Q233.13-31.55 232.86-31.9 232.58-32.25 232.13-32.6L232.13-32.6Q231.63-33 231.41-33.3 231.18-33.6 231.33-34.1L231.33-34.1Q231.63-35.25 234.48-36.1 237.33-36.95 240.43-36.95L240.43-36.95Q243.33-36.95 244.71-35.85 246.08-34.75 246.08-32.85L246.08-32.85Q246.08-31.75 245.73-30.7L245.73-30.7 238.58-7.2ZM230.23-21.25Q229.43-21.95 228.48-21.95L228.48-21.95Q227.03-21.95 225.63-19.8 224.23-17.65 223.38-14.6 222.53-11.55 222.58-9.1L222.58-9.1Q222.58-6.35 224.38-6.35L224.38-6.35Q225.03-6.35 225.48-6.88 225.93-7.4 226.33-8.6L226.33-8.6 230.23-21.25ZM277.13-20.15L273.08-6.9Q272.98-6.5 272.98-6.3L272.98-6.3Q272.98-5.95 273.16-5.75 273.33-5.55 273.63-5.55L273.63-5.55Q274.23-5.55 274.66-6.08 275.08-6.6 275.23-6.6L275.23-6.6Q275.48-6.6 275.66-6.28 275.83-5.95 275.83-5.5L275.83-5.5Q275.88-4.1 274.83-2.73 273.78-1.35 271.88-0.45 269.98 0.45 267.63 0.45L267.63 0.45Q264.68 0.45 262.93-0.75 261.18-1.95 260.68-3.9L260.68-3.9Q258.88-1.9 256.71-0.88 254.53 0.15 252.28 0.15L252.28 0.15Q248.78 0.15 246.41-1.58 244.03-3.3 244.03-6.4L244.03-6.4Q244.03-7.8 244.53-9.3L244.53-9.3 247.73-19.75Q247.88-20.2 247.88-20.5L247.88-20.5Q247.88-21.05 247.63-21.38 247.38-21.7 246.88-22.05L246.88-22.05Q246.38-22.45 246.18-22.75 245.98-23.05 246.13-23.55L246.13-23.55Q246.43-24.7 249.28-25.58 252.13-26.45 255.23-26.45L255.23-26.45Q258.13-26.45 259.48-25.35 260.83-24.25 260.83-22.35L260.83-22.35Q260.83-21.2 260.48-20.15L260.48-20.15 257.33-9.75Q257.13-9.2 257.13-8.7L257.13-8.7Q257.13-8 257.53-7.65 257.93-7.3 258.58-7.3L258.58-7.3Q259.53-7.3 260.13-7.85 260.73-8.4 261.33-9.7L261.33-9.7 264.38-19.75Q264.53-20.2 264.53-20.5L264.53-20.5Q264.53-21.05 264.28-21.38 264.03-21.7 263.58-22.05L263.58-22.05Q263.08-22.45 262.88-22.75 262.68-23.05 262.83-23.55L262.83-23.55Q263.08-24.7 265.93-25.58 268.78-26.45 271.88-26.45L271.88-26.45Q274.78-26.45 276.16-25.35 277.53-24.25 277.53-22.4L277.53-22.4Q277.53-21.45 277.13-20.15L277.13-20.15ZM293.63-36.95Q296.53-36.95 297.9-35.85 299.28-34.75 299.28-32.85L299.28-32.85Q299.28-31.75 298.93-30.7L298.93-30.7 291.08-5.2Q290.93-4.6 290.93-4.15L290.93-4.15Q290.93-3.5 291.18-3.13 291.43-2.75 291.88-2.4L291.88-2.4Q292.23-2.05 292.38-1.83 292.53-1.6 292.43-1.25L292.43-1.25Q292.18-0.6 291.43-0.3 290.68 0 289.13 0L289.13 0 277.73 0Q276.43 0 275.83-0.43 275.23-0.85 275.43-1.55L275.43-1.55Q275.63-2.15 276.48-2.6L276.48-2.6Q277.23-3 277.73-3.55 278.23-4.1 278.58-5.3L278.58-5.3 286.18-30.25Q286.33-30.7 286.33-31L286.33-31Q286.33-31.55 286.05-31.9 285.78-32.25 285.33-32.6L285.33-32.6Q284.83-33 284.6-33.3 284.38-33.6 284.53-34.1L284.53-34.1Q284.83-35.25 287.68-36.1 290.53-36.95 293.63-36.95L293.63-36.95ZM346.58-16.75L343.53-6.9Q343.43-6.7 343.43-6.3L343.43-6.3Q343.43-5.95 343.6-5.75 343.78-5.55 344.08-5.55L344.08-5.55Q344.68-5.55 345.1-6.08 345.53-6.6 345.68-6.6L345.68-6.6Q345.93-6.6 346.08-6.28 346.23-5.95 346.23-5.5L346.23-5.5Q346.28-4.05 345.28-2.68 344.28-1.3 342.35-0.43 340.43 0.45 337.73 0.45L337.73 0.45Q334.43 0.45 332.48-1.07 330.53-2.6 330.48-5.15L330.48-5.15Q330.48-7 331.38-9.3L331.38-9.3 334.13-16.5Q334.38-17.15 334.38-17.55L334.38-17.55Q334.38-18.2 333.95-18.57 333.53-18.95 332.93-18.95L332.93-18.95Q332.08-18.95 331.18-18.2 330.28-17.45 329.58-15.85L329.58-15.85 326.83-6.9Q326.73-6.7 326.73-6.3L326.73-6.3Q326.73-5.95 326.9-5.75 327.08-5.55 327.38-5.55L327.38-5.55Q327.98-5.55 328.4-6.08 328.83-6.6 328.98-6.6L328.98-6.6Q329.23-6.6 329.38-6.28 329.53-5.95 329.53-5.5L329.53-5.5Q329.58-4.05 328.58-2.68 327.58-1.3 325.65-0.43 323.73 0.45 321.03 0.45L321.03 0.45Q317.73 0.45 315.78-1.07 313.83-2.6 313.78-5.15L313.78-5.15Q313.78-7 314.68-9.3L314.68-9.3 317.43-16.5Q317.68-17.15 317.68-17.55L317.68-17.55Q317.68-18.2 317.25-18.57 316.83-18.95 316.23-18.95L316.23-18.95Q315.38-18.95 314.48-18.23 313.58-17.5 312.98-15.9L312.98-15.9 309.68-5.2Q309.48-4.65 309.48-4.15L309.48-4.15Q309.48-3.55 309.73-3.18 309.98-2.8 310.43-2.4L310.43-2.4Q310.78-2.1 310.93-1.85 311.08-1.6 310.98-1.25L310.98-1.25Q310.78-0.6 310.03-0.3 309.28 0 307.68 0L307.68 0 296.28 0Q294.98 0 294.4-0.43 293.83-0.85 293.98-1.55L293.98-1.55Q294.18-2.15 295.03-2.6L295.03-2.6Q295.78-3 296.28-3.55 296.78-4.1 297.13-5.3L297.13-5.3 301.58-19.75Q301.68-20 301.68-20.45L301.68-20.45Q301.68-21 301.45-21.3 301.23-21.6 300.73-22.05L300.73-22.05Q300.23-22.45 300.03-22.75 299.83-23.05 299.98-23.55L299.98-23.55Q300.28-24.7 303.13-25.58 305.98-26.45 309.08-26.45L309.08-26.45Q311.53-26.45 312.95-25.1 314.38-23.75 314.33-21.4L314.33-21.4Q316.38-24.25 318.65-25.35 320.93-26.45 323.58-26.45L323.58-26.45Q326.48-26.45 328.3-24.78 330.13-23.1 330.33-20.4L330.33-20.4Q332.48-23.8 334.93-25.13 337.38-26.45 340.28-26.45L340.28-26.45Q343.33-26.45 345.2-24.6 347.08-22.75 347.08-19.8L347.08-19.8Q347.08-18.25 346.58-16.75L346.58-16.75ZM365.32-26.7Q371.67-26.7 374.52-24.68 377.37-22.65 377.37-19.5L377.37-19.5Q377.37-18.55 377.17-17.75L377.17-17.75Q376.42-14.45 373-13.03 369.57-11.6 364.92-11.6L364.92-11.6Q362.57-11.6 360.52-11.9L360.52-11.9Q360.47-9.3 361.92-8.25 363.37-7.2 365.97-7.2L365.97-7.2Q367.17-7.2 368.27-7.48 369.37-7.75 371.07-8.3L371.07-8.3Q372.47-8.8 372.97-8.8L372.97-8.8Q373.52-8.8 373.52-8.15L373.52-8.15Q373.57-6.4 372.22-4.48 370.87-2.55 368.22-1.2 365.57 0.15 361.82 0.15L361.82 0.15Q356.27 0.15 352.72-2.65 349.17-5.45 349.17-10.8L349.17-10.8Q349.17-12.3 349.57-14.3L349.57-14.3Q350.82-20.45 355.05-23.58 359.27-26.7 365.32-26.7L365.32-26.7ZM360.87-14.9Q361.07-14.85 361.42-14.85L361.42-14.85Q363.52-14.85 364.62-16.8 365.72-18.75 365.67-21.15L365.67-21.15Q365.62-22.55 364.87-22.55L364.87-22.55Q364.32-22.55 363.57-21.68 362.82-20.8 362.1-19.05 361.37-17.3 360.87-14.9L360.87-14.9ZM402.72-26.45Q404.82-26.45 406.17-25.03 407.52-23.6 407.52-21.5L407.52-21.5Q407.52-20.55 407.22-19.55L407.22-19.55Q406.67-17.85 405.6-17 404.52-16.15 403.17-16.15L403.17-16.15Q401.57-16.15 400.07-17.2L400.07-17.2 397.57-14.85Q398.82-11.45 399.62-9.8 400.42-8.15 400.92-7.68 401.42-7.2 402.07-7.2L402.07-7.2Q402.42-7.2 402.97-7.48 403.52-7.75 403.82-7.75L403.82-7.75Q404.12-7.75 404.32-7.48 404.52-7.2 404.52-6.75L404.52-6.75Q404.52-6.5 404.42-6L404.42-6Q404.02-4.3 402.72-2.9 401.42-1.5 399.62-0.68 397.82 0.15 395.97 0.15L395.97 0.15Q394.12 0.15 392.77-0.33 391.42-0.8 390.02-2.45 388.62-4.1 387.17-7.4L387.17-7.4 385.92-4.6Q384.72-1.95 383.5-0.88 382.27 0.2 380.62 0.2L380.62 0.2Q378.42 0.2 377.02-1.2 375.62-2.6 375.62-4.75L375.62-4.75Q375.62-5.75 375.92-6.7L375.92-6.7Q376.47-8.4 377.55-9.25 378.62-10.1 379.97-10.1L379.97-10.1Q381.57-10.1 383.07-9.05L383.07-9.05 385.57-11.4Q384.37-14.8 383.62-16.48 382.87-18.15 382.35-18.63 381.82-19.1 381.17-19.1L381.17-19.1Q380.82-19.1 380.3-18.82 379.77-18.55 379.47-18.55L379.47-18.55Q378.72-18.55 378.72-19.6L378.72-19.6Q378.72-19.75 378.82-20.25L378.82-20.25Q379.47-22.85 381.97-24.65 384.47-26.45 387.32-26.45L387.32-26.45Q389.12-26.45 390.5-25.9 391.87-25.35 393.25-23.7 394.62-22.05 396.02-18.9L396.02-18.9 397.42-22.05Q398.52-24.45 399.72-25.45 400.92-26.45 402.72-26.45L402.72-26.45Z" fill="white"></path></g></svg></g></svg></g></svg></g></svg></g><g><svg viewBox="0 0 55.0895703421452 35.69837909735752" height="35.69837909735752" width="55.0895703421452"><g><svg xmlns="http://www.w3.org/2000/svg" viewBox="10 27.59716307092343 100 64.80061266705354" x="0" y="0" height="35.69837909735752" width="55.0895703421452" class="icon-icon-0" data-fill-palette-color="accent" id="SvgjsSvg1438"><polygon points="32.06 37.95 17.65 52.36 10 60.01 17.65 67.64 32.06 82.05 39.71 74.42 25.3 60.01 39.71 45.6 32.06 37.95" fill="black"></polygon><polygon points="102.35 52.36 87.94 37.95 80.29 45.6 94.7 60.01 80.29 74.42 87.94 82.05 102.35 67.64 110 60.01 102.35 52.36" fill="black"></polygon><rect x="27.91" y="54.59" width="64.19" height="10.81" transform="translate(-13.48 102.43) rotate(-75)" fill="black"></rect></svg></g></svg></g></svg></g><defs><mask></mask></defs></svg><rect width="395.52" height="30.778682474401577" fill="black" stroke="none" visibility="hidden"></rect></g></mask><linearGradient x1="0" x2="1" y1="0.578" y2="0.595" id="b998a308-0b94-4a1f-9908-20c050e735fb"><stop stop-color="#6ee2f5" offset="0"></stop><stop stop-color="#6454f0" offset="1"></stop></linearGradient><rect width="395.52" height="30.778682474401577" fill="url(#b998a308-0b94-4a1f-9908-20c050e735fb)" mask="url(#68364fb0-5e00-4db8-acb4-715a02001bd6)" data-fill-palette-color="primary"></rect><mask id="0c918f46-f52e-4abe-8985-251346002aed"><g id="SvgjsG1457"><svg viewBox="0 0 395.52 30.778682474401577" height="30.778682474401577" width="395.52"><g><svg viewBox="0 0 458.74032822327183 35.69837909735752" height="30.778682474401577" width="395.52"><g transform="matrix(1,0,0,1,63.22032822327185,0.6285532257856019)"><svg viewBox="0 0 395.52 34.44127264578631" height="34.44127264578631" width="395.52"><g id="SvgjsG1456"><svg viewBox="0 0 395.52 34.44127264578631" height="34.44127264578631" width="395.52" id="SvgjsSvg1455"><g><svg viewBox="0 0 395.52 34.44127264578631" height="34.44127264578631" width="395.52"><g transform="matrix(1,0,0,1,0,0)"><svg width="395.52" viewBox="-0.3 -36.95 429.4677178147268 37.400000000000006" height="34.44127264578631" data-palette-color="url(#b998a308-0b94-4a1f-9908-20c050e735fb)"><g transform="matrix(1,0,0,1,0,0)"><g><svg width="14.431811876484558" viewBox="1.99 -36.86 66.08 37.37" height="8.162" data-palette-color="url(#b998a308-0b94-4a1f-9908-20c050e735fb)" id="SvgjsSvg1454" x="414.73590593824224" y="-36.95"></svg></g></g><g class="wordmark-text-0" data-fill-palette-color="primary" id="SvgjsG1453"></g></svg></g></svg></g></svg></g></svg></g><g><svg viewBox="0 0 55.0895703421452 35.69837909735752" height="35.69837909735752" width="55.0895703421452"><g><svg xmlns="http://www.w3.org/2000/svg" viewBox="10 27.59716307092343 100 64.80061266705354" x="0" y="0" height="35.69837909735752" width="55.0895703421452" class="icon-icon-0" data-fill-palette-color="accent" id="SvgjsSvg1452"><polygon points="32.06 37.95 17.65 52.36 10 60.01 17.65 67.64 32.06 82.05 39.71 74.42 25.3 60.01 39.71 45.6 32.06 37.95" fill="white"></polygon><polygon points="102.35 52.36 87.94 37.95 80.29 45.6 94.7 60.01 80.29 74.42 87.94 82.05 102.35 67.64 110 60.01 102.35 52.36" fill="white"></polygon><rect x="27.91" y="54.59" width="64.19" height="10.81" transform="translate(-13.48 102.43) rotate(-75)" fill="white"></rect></svg></g></svg></g></svg></g><defs><mask></mask></defs><mask><g id="SvgjsG1451"><svg viewBox="0 0 395.52 30.778682474401577" height="30.778682474401577" width="395.52"><g><svg viewBox="0 0 458.74032822327183 35.69837909735752" height="30.778682474401577" width="395.52"><g transform="matrix(1,0,0,1,63.22032822327185,0.6285532257856019)"><svg viewBox="0 0 395.52 34.44127264578631" height="34.44127264578631" width="395.52"><g id="SvgjsG1450"><svg viewBox="0 0 395.52 34.44127264578631" height="34.44127264578631" width="395.52" id="SvgjsSvg1449"><g><svg viewBox="0 0 395.52 34.44127264578631" height="34.44127264578631" width="395.52"><g transform="matrix(1,0,0,1,0,0)"><svg width="395.52" viewBox="-0.3 -36.95 429.4677178147268 37.400000000000006" height="34.44127264578631" data-palette-color="url(#b998a308-0b94-4a1f-9908-20c050e735fb)"><g transform="matrix(1,0,0,1,0,0)"><g><svg width="14.431811876484558" viewBox="1.99 -36.86 66.08 37.37" height="8.162" data-palette-color="url(#b998a308-0b94-4a1f-9908-20c050e735fb)" id="SvgjsSvg1448" x="414.73590593824224" y="-36.95"><path d="M30.26-25.91L22.89-25.91Q22.67-28.05 21.06-29.24 19.44-30.43 16.67-30.43L16.67-30.43Q14.79-30.43 13.49-29.91 12.2-29.39 11.51-28.46 10.83-27.54 10.83-26.37L10.83-26.37Q10.8-25.39 11.25-24.66 11.7-23.93 12.5-23.41 13.3-22.89 14.35-22.51 15.39-22.12 16.58-21.86L16.58-21.86 19.85-21.08Q22.23-20.54 24.22-19.66 26.21-18.77 27.66-17.47 29.12-16.18 29.93-14.42 30.74-12.66 30.75-10.39L30.75-10.39Q30.74-7.05 29.06-4.61 27.38-2.17 24.23-0.83 21.08 0.51 16.64 0.51L16.64 0.51Q12.23 0.51 8.98-0.83 5.72-2.18 3.9-4.84 2.08-7.49 1.99-11.42L1.99-11.42 9.43-11.42Q9.55-9.59 10.48-8.37 11.42-7.16 12.99-6.54 14.56-5.93 16.55-5.93L16.55-5.93Q18.5-5.93 19.95-6.5 21.4-7.07 22.19-8.08 22.99-9.09 22.99-10.4L22.99-10.4Q22.99-11.63 22.27-12.46 21.56-13.3 20.18-13.88 18.8-14.47 16.81-14.95L16.81-14.95 12.86-15.94Q8.26-17.06 5.59-19.44 2.93-21.82 2.95-25.85L2.95-25.85Q2.93-29.15 4.71-31.62 6.5-34.09 9.62-35.48 12.75-36.86 16.73-36.86L16.73-36.86Q20.77-36.86 23.8-35.48 26.83-34.09 28.52-31.62 30.2-29.15 30.26-25.91L30.26-25.91ZM50.44-28.05L41.31 0 33.08 0 45.63-36.36 55.54-36.36 68.07 0 59.83 0 50.73-28.05 50.44-28.05ZM40.8-8.29L40.8-14.29 60.26-14.29 60.26-8.29 40.8-8.29Z" opacity="1" transform="matrix(1,0,0,1,0,0)" fill="black" class="undefined-123" id="SvgjsPath1447"></path></svg></g></g><g class="wordmark-text-0" data-fill-palette-color="primary" id="SvgjsG1446"><path d="M18.7-33.6Q21.5-33.6 23.88-32.93 26.25-32.25 28.7-30.8L28.7-30.8 29.85-31.75Q31.05-32.7 31.83-33.05 32.6-33.4 33.6-33.4L33.6-33.4Q34.8-33.4 35.5-32.88 36.2-32.35 36.2-31.35L36.2-31.35Q36.2-30.95 36.05-30.5L36.05-30.5 33.95-23.6Q33.6-22.4 33.08-21.9 32.55-21.4 31.5-21.4L31.5-21.4Q30.4-21.4 29.58-22.08 28.75-22.75 27-24.85L27-24.85Q25.25-26.85 23.83-27.68 22.4-28.5 20.9-28.5L20.9-28.5Q19.8-28.5 19.05-27.78 18.3-27.05 18.3-26L18.3-26Q18.3-24.8 19.5-23.78 20.7-22.75 23.25-21.2L23.25-21.2Q25.85-19.65 27.55-18.4 29.25-17.15 30.45-15.3 31.65-13.45 31.65-11.05L31.65-11.05Q31.65-9.5 31.15-7.95L31.15-7.95Q29.95-3.95 26.5-1.88 23.05 0.2 18.45 0.2L18.45 0.2Q15 0.2 12.65-0.6 10.3-1.4 7.85-3.3L7.85-3.3 6.05-1.8Q4.8-0.75 4-0.38 3.2 0 2.2 0L2.2 0Q1.05 0 0.38-0.55-0.3-1.1-0.3-2.05L-0.3-2.05Q-0.3-2.55-0.1-3.1L-0.1-3.1 2.35-10.55Q2.75-11.85 3.45-12.4 4.15-12.95 5.25-12.95L5.25-12.95Q6.4-12.95 7.33-12.15 8.25-11.35 9.75-9.25L9.75-9.25Q11.35-6.95 12.73-6.05 14.1-5.15 16-5.15L16-5.15Q17.35-5.15 18.07-5.58 18.8-6 19.1-6.95L19.1-6.95Q19.2-7.2 19.2-7.7L19.2-7.7Q19.2-8.9 18.05-9.9 16.9-10.9 14.5-12.3L14.5-12.3Q11.95-13.85 10.35-15.08 8.75-16.3 7.58-18.15 6.4-20 6.4-22.5L6.4-22.5Q6.4-24.25 6.95-25.95L6.95-25.95Q8-29.4 11.25-31.5 14.5-33.6 18.7-33.6L18.7-33.6ZM56.8-25.8Q57.75-25.8 58.27-25.4 58.8-25 58.8-24.3L58.8-24.3Q58.8-24.1 58.7-23.6L58.7-23.6Q58.05-21.4 55.7-21.4L55.7-21.4 52.8-21.4 49.05-9.05Q48.8-8.3 48.8-7.5L48.8-7.5Q48.8-6.6 49.3-6.25 49.8-5.9 50.7-5.9L50.7-5.9Q51.5-5.9 52.7-6.1L52.7-6.1Q53.3-6.25 53.75-6.25L53.75-6.25Q54.1-6.25 54.27-6.03 54.45-5.8 54.45-5.45L54.45-5.45Q54.5-4.45 52.97-3.03 51.45-1.6 48.85-0.58 46.25 0.45 43.1 0.45L43.1 0.45Q39.7 0.45 37.65-1.1 35.6-2.65 35.6-5.35L35.6-5.35Q35.6-6.6 36-7.75L36-7.75 39.2-17.65Q39.45-18.5 39.45-19L39.45-19Q39.45-20 38.97-20.7 38.5-21.4 37.65-22.15L37.65-22.15Q36.9-22.85 36.6-23.33 36.3-23.8 36.45-24.45L36.45-24.45Q36.65-25.1 37.3-25.45 37.95-25.8 39.35-25.8L39.35-25.8 42.15-25.8 45.3-28.95Q46.95-30.6 48.32-31.25 49.7-31.9 51.9-31.9L51.9-31.9Q55.05-31.9 55.05-29.5L55.05-29.5Q55.05-28.75 54.85-28.1L54.85-28.1 54.15-25.8 56.8-25.8ZM72.9-26.7Q79.25-26.7 82.1-24.68 84.95-22.65 84.95-19.5L84.95-19.5Q84.95-18.55 84.75-17.75L84.75-17.75Q84-14.45 80.57-13.03 77.15-11.6 72.5-11.6L72.5-11.6Q70.15-11.6 68.1-11.9L68.1-11.9Q68.05-9.3 69.5-8.25 70.95-7.2 73.55-7.2L73.55-7.2Q74.75-7.2 75.85-7.48 76.95-7.75 78.65-8.3L78.65-8.3Q80.05-8.8 80.55-8.8L80.55-8.8Q81.1-8.8 81.1-8.15L81.1-8.15Q81.15-6.4 79.8-4.48 78.45-2.55 75.8-1.2 73.15 0.15 69.4 0.15L69.4 0.15Q63.85 0.15 60.3-2.65 56.75-5.45 56.75-10.8L56.75-10.8Q56.75-12.3 57.15-14.3L57.15-14.3Q58.4-20.45 62.62-23.58 66.85-26.7 72.9-26.7L72.9-26.7ZM68.45-14.9Q68.65-14.85 69-14.85L69-14.85Q71.1-14.85 72.2-16.8 73.3-18.75 73.25-21.15L73.25-21.15Q73.2-22.55 72.45-22.55L72.45-22.55Q71.9-22.55 71.15-21.68 70.4-20.8 69.67-19.05 68.95-17.3 68.45-14.9L68.45-14.9ZM108.34-26.45Q110.99-26.45 112.74-24.55 114.49-22.65 114.49-19.35L114.49-19.35Q114.49-14.9 111.39-10.25 108.29-5.6 103.54-2.58 98.79 0.45 94.29 0.45L94.29 0.45Q89.99 0.45 87.32-1.3 84.64-3.05 84.64-6.3L84.64-6.3Q84.64-7.5 85.09-9L85.09-9 88.24-19.75Q88.34-20.15 88.34-20.35L88.34-20.35Q88.34-20.85 88.09-21.2 87.84-21.55 87.39-21.95L87.39-21.95Q86.64-22.6 86.64-23.1L86.64-23.1Q86.59-23.8 87.49-24.6 88.39-25.4 90.02-25.93 91.64-26.45 93.69-26.45L93.69-26.45Q97.04-26.45 98.92-24.83 100.79-23.2 100.79-20.6L100.79-20.6Q100.79-19.45 100.39-18.1L100.39-18.1 97.14-7.4Q96.99-6.95 96.99-6.65L96.99-6.65Q96.99-6 97.44-5.65 97.89-5.3 98.69-5.3L98.69-5.3Q99.79-5.3 101.27-6.28 102.74-7.25 104.19-9.08 105.64-10.9 106.54-13.4L106.54-13.4Q104.54-15.15 103.72-16.85 102.89-18.55 102.89-20.35L102.89-20.35Q102.89-22.9 104.29-24.68 105.69-26.45 108.34-26.45L108.34-26.45ZM130.84-26.7Q137.19-26.7 140.04-24.68 142.89-22.65 142.89-19.5L142.89-19.5Q142.89-18.55 142.69-17.75L142.69-17.75Q141.94-14.45 138.52-13.03 135.09-11.6 130.44-11.6L130.44-11.6Q128.09-11.6 126.04-11.9L126.04-11.9Q125.99-9.3 127.44-8.25 128.89-7.2 131.49-7.2L131.49-7.2Q132.69-7.2 133.79-7.48 134.89-7.75 136.59-8.3L136.59-8.3Q137.99-8.8 138.49-8.8L138.49-8.8Q139.04-8.8 139.04-8.15L139.04-8.15Q139.09-6.4 137.74-4.48 136.39-2.55 133.74-1.2 131.09 0.15 127.34 0.15L127.34 0.15Q121.79 0.15 118.24-2.65 114.69-5.45 114.69-10.8L114.69-10.8Q114.69-12.3 115.09-14.3L115.09-14.3Q116.34-20.45 120.57-23.58 124.79-26.7 130.84-26.7L130.84-26.7ZM126.39-14.9Q126.59-14.85 126.94-14.85L126.94-14.85Q129.04-14.85 130.14-16.8 131.24-18.75 131.19-21.15L131.19-21.15Q131.14-22.55 130.39-22.55L130.39-22.55Q129.84-22.55 129.09-21.68 128.34-20.8 127.62-19.05 126.89-17.3 126.39-14.9L126.39-14.9ZM177.34-22.9L172.44-5.9Q172.24-5.25 172.24-4.6L172.24-4.6Q172.24-4.05 172.39-3.68 172.54-3.3 172.71-3.08 172.89-2.85 172.94-2.75L172.94-2.75Q173.44-2.25 173.44-1.75L173.44-1.75Q173.44-1.65 173.34-1.25L173.34-1.25Q173.14-0.55 172.46-0.28 171.79 0 170.39 0L170.39 0 158.54 0Q157.49 0 156.91-0.35 156.34-0.7 156.34-1.3L156.34-1.3Q156.34-1.6 156.49-1.95L156.49-1.95Q156.64-2.35 156.91-2.58 157.19-2.8 157.69-3.1L157.69-3.1Q158.49-3.55 158.99-4.1 159.49-4.65 159.84-5.9L159.84-5.9 161.14-10.2 153.34-10.2 151.99-7.35Q151.14-5.5 151.14-4.45L151.14-4.45Q151.14-3.85 151.34-3.48 151.54-3.1 151.94-2.7L151.94-2.7Q152.29-2.3 152.41-2.02 152.54-1.75 152.44-1.3L152.44-1.3Q152.24-0.55 151.61-0.28 150.99 0 149.64 0L149.64 0 142.19 0Q141.04 0 140.44-0.43 139.84-0.85 139.84-1.55L139.84-1.55Q139.84-2.35 140.41-2.83 140.99-3.3 142.14-3.85L142.14-3.85Q143.64-4.6 144.54-5.33 145.44-6.05 146.09-7.35L146.09-7.35 154.99-25.8Q157.04-30.1 159.81-32.02 162.59-33.95 167.14-33.95L167.14-33.95Q172.24-33.95 175.04-31.88 177.84-29.8 177.84-26.1L177.84-26.1Q177.84-24.55 177.34-22.9L177.34-22.9ZM155.64-15.2L162.64-15.2 165.29-24Q165.49-24.6 165.49-25.25L165.49-25.25Q165.49-26.2 164.96-26.68 164.44-27.15 163.49-27.15L163.49-27.15Q162.29-27.15 161.44-26.45 160.59-25.75 159.74-23.95L159.74-23.95 155.64-15.2ZM202.29-26.65Q205.99-26.65 208.21-24 210.44-21.35 210.44-17L210.44-17Q210.44-14.75 209.89-12.6L209.89-12.6Q208.29-6.15 204.41-2.85 200.54 0.45 195.49 0.45L195.49 0.45Q192.64 0.45 190.56-0.53 188.49-1.5 187.24-3.3L187.24-3.3 185.44-1.75Q184.39-0.85 183.39-0.43 182.39 0 181.09 0L181.09 0 178.89 0Q177.64 0 176.96-0.53 176.29-1.05 176.29-2.05L176.29-2.05Q176.29-2.5 176.44-3.1L176.44-3.1 184.79-30.25Q184.94-30.7 184.94-31L184.94-31Q184.94-31.85 183.89-32.6L183.89-32.6Q183.39-33.05 183.19-33.33 182.99-33.6 183.14-34.05L183.14-34.05Q183.49-35.2 186.31-36.08 189.14-36.95 192.24-36.95L192.24-36.95Q195.14-36.95 196.51-35.83 197.89-34.7 197.89-32.8L197.89-32.8Q197.89-31.75 197.54-30.7L197.54-30.7 195.44-23.9Q198.34-26.65 202.29-26.65L202.29-26.65ZM196.64-12.9Q197.64-16.3 197.64-18.4L197.64-18.4Q197.64-20.7 196.29-20.7L196.29-20.7Q195.09-20.7 194.04-19.45L194.04-19.45 190.79-8.85 190.49-7.9 190.49-7.9Q190.24-7.15 190.24-6.35L190.24-6.35Q190.24-4.6 191.89-4.6L191.89-4.6Q193.09-4.6 194.19-6.35 195.29-8.1 196.64-12.9L196.64-12.9ZM238.58-7.2Q238.48-6.8 238.48-6.65L238.48-6.65Q238.48-6.3 238.68-6.1 238.88-5.9 239.18-5.9L239.18-5.9Q239.78-5.9 240.21-6.43 240.63-6.95 240.78-6.95L240.78-6.95Q241.03-6.95 241.18-6.6 241.33-6.25 241.33-5.8L241.33-5.8Q241.38-4.45 240.31-3.05 239.23-1.65 237.43-0.75 235.63 0.15 233.53 0.15L233.53 0.15Q231.03 0.15 229.18-0.8 227.33-1.75 226.63-3.3L226.63-3.3Q225.28-1.55 223.53-0.7 221.78 0.15 219.83 0.15L219.83 0.15Q217.53 0.15 215.56-1 213.58-2.15 212.41-4.28 211.23-6.4 211.23-9.1L211.23-9.1Q211.23-13.65 212.96-17.68 214.68-21.7 217.78-24.18 220.88-26.65 224.83-26.65L224.83-26.65Q226.98-26.65 228.51-26.15 230.03-25.65 231.28-24.65L231.28-24.65 232.98-30.25Q233.13-30.7 233.13-31L233.13-31Q233.13-31.55 232.86-31.9 232.58-32.25 232.13-32.6L232.13-32.6Q231.63-33 231.41-33.3 231.18-33.6 231.33-34.1L231.33-34.1Q231.63-35.25 234.48-36.1 237.33-36.95 240.43-36.95L240.43-36.95Q243.33-36.95 244.71-35.85 246.08-34.75 246.08-32.85L246.08-32.85Q246.08-31.75 245.73-30.7L245.73-30.7 238.58-7.2ZM230.23-21.25Q229.43-21.95 228.48-21.95L228.48-21.95Q227.03-21.95 225.63-19.8 224.23-17.65 223.38-14.6 222.53-11.55 222.58-9.1L222.58-9.1Q222.58-6.35 224.38-6.35L224.38-6.35Q225.03-6.35 225.48-6.88 225.93-7.4 226.33-8.6L226.33-8.6 230.23-21.25ZM277.13-20.15L273.08-6.9Q272.98-6.5 272.98-6.3L272.98-6.3Q272.98-5.95 273.16-5.75 273.33-5.55 273.63-5.55L273.63-5.55Q274.23-5.55 274.66-6.08 275.08-6.6 275.23-6.6L275.23-6.6Q275.48-6.6 275.66-6.28 275.83-5.95 275.83-5.5L275.83-5.5Q275.88-4.1 274.83-2.73 273.78-1.35 271.88-0.45 269.98 0.45 267.63 0.45L267.63 0.45Q264.68 0.45 262.93-0.75 261.18-1.95 260.68-3.9L260.68-3.9Q258.88-1.9 256.71-0.88 254.53 0.15 252.28 0.15L252.28 0.15Q248.78 0.15 246.41-1.58 244.03-3.3 244.03-6.4L244.03-6.4Q244.03-7.8 244.53-9.3L244.53-9.3 247.73-19.75Q247.88-20.2 247.88-20.5L247.88-20.5Q247.88-21.05 247.63-21.38 247.38-21.7 246.88-22.05L246.88-22.05Q246.38-22.45 246.18-22.75 245.98-23.05 246.13-23.55L246.13-23.55Q246.43-24.7 249.28-25.58 252.13-26.45 255.23-26.45L255.23-26.45Q258.13-26.45 259.48-25.35 260.83-24.25 260.83-22.35L260.83-22.35Q260.83-21.2 260.48-20.15L260.48-20.15 257.33-9.75Q257.13-9.2 257.13-8.7L257.13-8.7Q257.13-8 257.53-7.65 257.93-7.3 258.58-7.3L258.58-7.3Q259.53-7.3 260.13-7.85 260.73-8.4 261.33-9.7L261.33-9.7 264.38-19.75Q264.53-20.2 264.53-20.5L264.53-20.5Q264.53-21.05 264.28-21.38 264.03-21.7 263.58-22.05L263.58-22.05Q263.08-22.45 262.88-22.75 262.68-23.05 262.83-23.55L262.83-23.55Q263.08-24.7 265.93-25.58 268.78-26.45 271.88-26.45L271.88-26.45Q274.78-26.45 276.16-25.35 277.53-24.25 277.53-22.4L277.53-22.4Q277.53-21.45 277.13-20.15L277.13-20.15ZM293.63-36.95Q296.53-36.95 297.9-35.85 299.28-34.75 299.28-32.85L299.28-32.85Q299.28-31.75 298.93-30.7L298.93-30.7 291.08-5.2Q290.93-4.6 290.93-4.15L290.93-4.15Q290.93-3.5 291.18-3.13 291.43-2.75 291.88-2.4L291.88-2.4Q292.23-2.05 292.38-1.83 292.53-1.6 292.43-1.25L292.43-1.25Q292.18-0.6 291.43-0.3 290.68 0 289.13 0L289.13 0 277.73 0Q276.43 0 275.83-0.43 275.23-0.85 275.43-1.55L275.43-1.55Q275.63-2.15 276.48-2.6L276.48-2.6Q277.23-3 277.73-3.55 278.23-4.1 278.58-5.3L278.58-5.3 286.18-30.25Q286.33-30.7 286.33-31L286.33-31Q286.33-31.55 286.05-31.9 285.78-32.25 285.33-32.6L285.33-32.6Q284.83-33 284.6-33.3 284.38-33.6 284.53-34.1L284.53-34.1Q284.83-35.25 287.68-36.1 290.53-36.95 293.63-36.95L293.63-36.95ZM346.58-16.75L343.53-6.9Q343.43-6.7 343.43-6.3L343.43-6.3Q343.43-5.95 343.6-5.75 343.78-5.55 344.08-5.55L344.08-5.55Q344.68-5.55 345.1-6.08 345.53-6.6 345.68-6.6L345.68-6.6Q345.93-6.6 346.08-6.28 346.23-5.95 346.23-5.5L346.23-5.5Q346.28-4.05 345.28-2.68 344.28-1.3 342.35-0.43 340.43 0.45 337.73 0.45L337.73 0.45Q334.43 0.45 332.48-1.07 330.53-2.6 330.48-5.15L330.48-5.15Q330.48-7 331.38-9.3L331.38-9.3 334.13-16.5Q334.38-17.15 334.38-17.55L334.38-17.55Q334.38-18.2 333.95-18.57 333.53-18.95 332.93-18.95L332.93-18.95Q332.08-18.95 331.18-18.2 330.28-17.45 329.58-15.85L329.58-15.85 326.83-6.9Q326.73-6.7 326.73-6.3L326.73-6.3Q326.73-5.95 326.9-5.75 327.08-5.55 327.38-5.55L327.38-5.55Q327.98-5.55 328.4-6.08 328.83-6.6 328.98-6.6L328.98-6.6Q329.23-6.6 329.38-6.28 329.53-5.95 329.53-5.5L329.53-5.5Q329.58-4.05 328.58-2.68 327.58-1.3 325.65-0.43 323.73 0.45 321.03 0.45L321.03 0.45Q317.73 0.45 315.78-1.07 313.83-2.6 313.78-5.15L313.78-5.15Q313.78-7 314.68-9.3L314.68-9.3 317.43-16.5Q317.68-17.15 317.68-17.55L317.68-17.55Q317.68-18.2 317.25-18.57 316.83-18.95 316.23-18.95L316.23-18.95Q315.38-18.95 314.48-18.23 313.58-17.5 312.98-15.9L312.98-15.9 309.68-5.2Q309.48-4.65 309.48-4.15L309.48-4.15Q309.48-3.55 309.73-3.18 309.98-2.8 310.43-2.4L310.43-2.4Q310.78-2.1 310.93-1.85 311.08-1.6 310.98-1.25L310.98-1.25Q310.78-0.6 310.03-0.3 309.28 0 307.68 0L307.68 0 296.28 0Q294.98 0 294.4-0.43 293.83-0.85 293.98-1.55L293.98-1.55Q294.18-2.15 295.03-2.6L295.03-2.6Q295.78-3 296.28-3.55 296.78-4.1 297.13-5.3L297.13-5.3 301.58-19.75Q301.68-20 301.68-20.45L301.68-20.45Q301.68-21 301.45-21.3 301.23-21.6 300.73-22.05L300.73-22.05Q300.23-22.45 300.03-22.75 299.83-23.05 299.98-23.55L299.98-23.55Q300.28-24.7 303.13-25.58 305.98-26.45 309.08-26.45L309.08-26.45Q311.53-26.45 312.95-25.1 314.38-23.75 314.33-21.4L314.33-21.4Q316.38-24.25 318.65-25.35 320.93-26.45 323.58-26.45L323.58-26.45Q326.48-26.45 328.3-24.78 330.13-23.1 330.33-20.4L330.33-20.4Q332.48-23.8 334.93-25.13 337.38-26.45 340.28-26.45L340.28-26.45Q343.33-26.45 345.2-24.6 347.08-22.75 347.08-19.8L347.08-19.8Q347.08-18.25 346.58-16.75L346.58-16.75ZM365.32-26.7Q371.67-26.7 374.52-24.68 377.37-22.65 377.37-19.5L377.37-19.5Q377.37-18.55 377.17-17.75L377.17-17.75Q376.42-14.45 373-13.03 369.57-11.6 364.92-11.6L364.92-11.6Q362.57-11.6 360.52-11.9L360.52-11.9Q360.47-9.3 361.92-8.25 363.37-7.2 365.97-7.2L365.97-7.2Q367.17-7.2 368.27-7.48 369.37-7.75 371.07-8.3L371.07-8.3Q372.47-8.8 372.97-8.8L372.97-8.8Q373.52-8.8 373.52-8.15L373.52-8.15Q373.57-6.4 372.22-4.48 370.87-2.55 368.22-1.2 365.57 0.15 361.82 0.15L361.82 0.15Q356.27 0.15 352.72-2.65 349.17-5.45 349.17-10.8L349.17-10.8Q349.17-12.3 349.57-14.3L349.57-14.3Q350.82-20.45 355.05-23.58 359.27-26.7 365.32-26.7L365.32-26.7ZM360.87-14.9Q361.07-14.85 361.42-14.85L361.42-14.85Q363.52-14.85 364.62-16.8 365.72-18.75 365.67-21.15L365.67-21.15Q365.62-22.55 364.87-22.55L364.87-22.55Q364.32-22.55 363.57-21.68 362.82-20.8 362.1-19.05 361.37-17.3 360.87-14.9L360.87-14.9ZM402.72-26.45Q404.82-26.45 406.17-25.03 407.52-23.6 407.52-21.5L407.52-21.5Q407.52-20.55 407.22-19.55L407.22-19.55Q406.67-17.85 405.6-17 404.52-16.15 403.17-16.15L403.17-16.15Q401.57-16.15 400.07-17.2L400.07-17.2 397.57-14.85Q398.82-11.45 399.62-9.8 400.42-8.15 400.92-7.68 401.42-7.2 402.07-7.2L402.07-7.2Q402.42-7.2 402.97-7.48 403.52-7.75 403.82-7.75L403.82-7.75Q404.12-7.75 404.32-7.48 404.52-7.2 404.52-6.75L404.52-6.75Q404.52-6.5 404.42-6L404.42-6Q404.02-4.3 402.72-2.9 401.42-1.5 399.62-0.68 397.82 0.15 395.97 0.15L395.97 0.15Q394.12 0.15 392.77-0.33 391.42-0.8 390.02-2.45 388.62-4.1 387.17-7.4L387.17-7.4 385.92-4.6Q384.72-1.95 383.5-0.88 382.27 0.2 380.62 0.2L380.62 0.2Q378.42 0.2 377.02-1.2 375.62-2.6 375.62-4.75L375.62-4.75Q375.62-5.75 375.92-6.7L375.92-6.7Q376.47-8.4 377.55-9.25 378.62-10.1 379.97-10.1L379.97-10.1Q381.57-10.1 383.07-9.05L383.07-9.05 385.57-11.4Q384.37-14.8 383.62-16.48 382.87-18.15 382.35-18.63 381.82-19.1 381.17-19.1L381.17-19.1Q380.82-19.1 380.3-18.82 379.77-18.55 379.47-18.55L379.47-18.55Q378.72-18.55 378.72-19.6L378.72-19.6Q378.72-19.75 378.82-20.25L378.82-20.25Q379.47-22.85 381.97-24.65 384.47-26.45 387.32-26.45L387.32-26.45Q389.12-26.45 390.5-25.9 391.87-25.35 393.25-23.7 394.62-22.05 396.02-18.9L396.02-18.9 397.42-22.05Q398.52-24.45 399.72-25.45 400.92-26.45 402.72-26.45L402.72-26.45Z" fill="black"></path></g></svg></g></svg></g></svg></g></svg></g><g><svg viewBox="0 0 55.0895703421452 35.69837909735752" height="35.69837909735752" width="55.0895703421452"><g><svg xmlns="http://www.w3.org/2000/svg" viewBox="10 27.59716307092343 100 64.80061266705354" x="0" y="0" height="35.69837909735752" width="55.0895703421452" class="icon-icon-0" data-fill-palette-color="accent" id="SvgjsSvg1445"><polygon points="32.06 37.95 17.65 52.36 10 60.01 17.65 67.64 32.06 82.05 39.71 74.42 25.3 60.01 39.71 45.6 32.06 37.95" fill="black"></polygon><polygon points="102.35 52.36 87.94 37.95 80.29 45.6 94.7 60.01 80.29 74.42 87.94 82.05 102.35 67.64 110 60.01 102.35 52.36" fill="black"></polygon><rect x="27.91" y="54.59" width="64.19" height="10.81" transform="translate(-13.48 102.43) rotate(-75)" fill="black"></rect></svg></g></svg></g></svg></g><defs><mask></mask></defs></svg><rect width="395.52" height="30.778682474401577" fill="black" stroke="none" visibility="hidden"></rect></g></mask></svg><rect width="395.52" height="30.778682474401577" fill="black" stroke="none" visibility="hidden"></rect></g></mask><linearGradient x1="0" x2="1" y1="0.578" y2="0.595" id="ac2a422b-e3ea-4468-9980-be3f187daae9"><stop stop-color="#6ee2f5" offset="0"></stop><stop stop-color="#6454f0" offset="1"></stop></linearGradient><rect width="395.52" height="30.778682474401577" fill="url(#ac2a422b-e3ea-4468-9980-be3f187daae9)" mask="url(#0c918f46-f52e-4abe-8985-251346002aed)" data-fill-palette-color="accent"></rect></svg><rect width="395.52" height="30.778682474401577" fill="none" stroke="none" visibility="hidden"></rect></g></svg></g></svg>